<svg xmlns="http://www.w3.org/2000/svg" xmlns:xlink="http://www.w3.org/1999/xlink" version="1.1" width="849.5728824894531" height="468.5084808288182"><desc>title%20Station%20Location%0A%0Aactor%20User%0A%0AUser%20-%3E%20Mobile%20App%20%3A%20%0Aactivate%20Mobile%20App%0AMobile%20App%20-%3E%20Charging%20Management%20System%20%3A%20Request%20nearby%20stations%20%26%20availability%0Aactivate%20Charging%20Management%20System%0Adatabase%20Database%0ACharging%20Management%20System%20-%3E%20Database%20%3A%20Query%20for%20nearby%20stations%20%26%20availability%0Aactivate%20Database%0ADatabase%20-%3E%20Charging%20Management%20System%20%3A%20Send%20back%20the%20results%0Adeactivate%20Database%0ACharging%20Management%20System%20-%3E%20Mobile%20App%20%3A%20Send%20back%20the%20results%0Adeactivate%20Charging%20Management%20System%0AMobile%20App%20-%3E%20User%20%3A%20Display%20the%20results%0Adeactivate%20Mobile%20App</desc><defs/><g><g/><g/><g/><g/><g/><g/><g/><g/><g/><g/><g/><g/><g/><g/><g/><g/><g/><g/><g/><g/><g/><g/><g/><g/><g/><g/><g/><g/><g/><g/><g/><g/><g/><g/><g/><g/><g/><g/><g/><g/><g/><g/><g/><g/><g/><g/><g/><g/><g/><g/><g><rect fill="white" stroke="none" x="0" y="0" width="849" height="468"/></g><g/><g><path fill="none" stroke="black" paint-order="fill stroke markers" d=" M 23.64361483359375 128.73625218881818 L 23.64361483359375 468.5084808288182" stroke-miterlimit="10" stroke-width="1.3612669416666667" stroke-dasharray="12.565541,5.445067766666667"/><path fill="none" stroke="black" paint-order="fill stroke markers" d=" M 195.14263264036455 128.73625218881818 L 195.14263264036455 468.5084808288182" stroke-miterlimit="10" stroke-width="1.3612669416666667" stroke-dasharray="12.565541,5.445067766666667"/><path fill="none" stroke="black" paint-order="fill stroke markers" d=" M 498.6889365453776 128.73625218881818 L 498.6889365453776 468.5084808288182" stroke-miterlimit="10" stroke-width="1.3612669416666667" stroke-dasharray="12.565541,5.445067766666667"/><path fill="none" stroke="black" paint-order="fill stroke markers" d=" M 808.7348742394531 128.73625218881818 L 808.7348742394531 468.5084808288182" stroke-miterlimit="10" stroke-width="1.3612669416666667" stroke-dasharray="12.565541,5.445067766666667"/></g><g><g><path fill="white" stroke="black" paint-order="fill stroke markers" d=" M 32.95468071459375 59.63834222981819 A 9.311065881 9.311065881 0 1 1 32.9546760590612 59.62903116548903 M 23.64361483359375 68.9494081108182 L 23.64361483359375 88.8783561368182 M 11.882268457593753 76.13689756281819 L 35.40496120959375 76.13689756281819 M 23.64361483359375 88.8783561368182 L 11.882268457593753 107.50048789881819 M 23.64361483359375 88.8783561368182 L 35.40496120959375 107.50048789881819" stroke-miterlimit="10" stroke-width="2.7769845610000004" stroke-dasharray=""/></g><g><g/><text fill="black" stroke="none" font-family="sans-serif" font-size="11pt" font-style="normal" font-weight="normal" text-decoration="normal" x="8.167601650000002" y="123.83569119881818" text-anchor="start" dominant-baseline="alphabetic" xml:space="preserve">User</text></g><path fill="none" stroke="none"/><g><path fill="white" stroke="black" paint-order="fill stroke markers" d=" M 140.7475121941419 84.63120327881819 L 249.53775308658723 84.63120327881819 L 249.53775308658723 128.73625218881818 L 140.7475121941419 128.73625218881818 L 140.7475121941419 84.63120327881819 Z" stroke-miterlimit="10" stroke-width="2.613632528" stroke-dasharray=""/></g><g><g/><text fill="black" stroke="none" font-family="sans-serif" font-size="11pt" font-style="normal" font-weight="normal" text-decoration="normal" x="158.4712077746419" y="112.40104888881817" text-anchor="start" dominant-baseline="alphabetic" xml:space="preserve">Mobile App</text></g><path fill="none" stroke="none"/><g><path fill="white" stroke="black" paint-order="fill stroke markers" d=" M 379.92375231741664 84.63120327881819 L 617.4541207733386 84.63120327881819 L 617.4541207733386 128.73625218881818 L 379.92375231741664 128.73625218881818 L 379.92375231741664 84.63120327881819 Z" stroke-miterlimit="10" stroke-width="2.613632528" stroke-dasharray=""/></g><g><g/><text fill="black" stroke="none" font-family="sans-serif" font-size="11pt" font-style="normal" font-weight="normal" text-decoration="normal" x="397.64744789791666" y="112.40104888881817" text-anchor="start" dominant-baseline="alphabetic" xml:space="preserve">Charging Management System</text></g><g><path fill="white" stroke="black" paint-order="fill stroke markers" d=" M 784.8854774214532 96.71925372081819 L 784.8854774214532 62.41532679081819 L 832.5842710574531 62.41532679081819 L 832.5842710574531 96.71925372081819" stroke-miterlimit="10" stroke-width="2.7769845610000004" stroke-dasharray=""/><path fill="white" stroke="black" paint-order="fill stroke markers" d=" M 832.5842710574531 61.22285694991819 L 832.5830785975494 61.33066749483481 L 832.5795013370833 61.43846725878678 L 832.5735396337781 61.546245461887544 L 832.5651940837987 61.65399132640659 L 832.5544655216935 61.761694077847274 L 832.5413550203097 61.86934294602419 L 832.5258638906864 61.976927166140236 L 832.5079936819238 62.084435979863045 L 832.4877461810278 62.19185863640084 L 832.4651234127316 62.299184393577484 L 832.4401276392932 62.4064025189067 L 832.4127613602692 62.51350229066531 L 832.3830273122646 62.62047299896537 L 832.3509284686595 62.7273039468252 L 832.3164680393114 62.83398445123905 L 832.2796494702346 62.94050384424536 L 832.2404764432553 63.04685147399361 L 832.1989528756435 63.15301670580944 L 832.1550829197215 63.25898892325815 L 832.1088709624481 63.364757529206294 L 832.0603216249808 63.47031194688142 L 832.0094397622128 63.575641620929716 L 831.9562304622879 63.68073601847156 L 831.9006990460916 63.78558463015478 L 831.8428510667196 63.89017697120557 L 831.7826923089215 63.994502582477 L 831.7202287885228 64.09855103149486 L 831.6554667518236 64.20231191350096 L 831.5884126749736 64.3057748524936 L 831.5190732633247 64.40892950226505 L 831.44745545076 64.51176554743633 L 831.3735663990013 64.61427270448858 L 831.2974134968923 64.71644072279157 L 831.2190043596595 64.81825938562858 L 831.1383468281514 64.91971851121816 L 831.055448968054 65.02080795373233 L 830.9703190690841 65.12151760431107 L 830.8829656441607 65.22183739207324 L 830.7933974285535 65.32175728512367 L 830.7016233790094 65.42126729155632 L 830.6076526728571 65.52035746045347 L 830.5114947070884 65.6190178828808 L 830.4131590974204 65.71723869287828 L 830.3126556773316 65.81501006844678 L 830.2099944970804 65.91232223253022 L 830.1051858226994 66.00916545399325 L 829.9982401349685 66.10553004859446 L 829.8891681283675 66.20140637995469 L 829.7779807100062 66.29678486052069 L 829.6646889985336 66.39165595252388 L 829.5493043230267 66.48601016893414 L 829.4318382218567 66.57983807440844 L 829.3123024415357 66.67313028623443 L 829.1907089355425 66.76587747526865 L 829.0670698631261 66.85807036686953 L 828.9413975880907 66.94969974182469 L 828.8137046775593 67.04075643727302 L 828.6840039007162 67.13123134762085 L 828.5523082275313 67.22111542545254 L 828.418630827462 67.3103996824352 L 828.2829850681371 67.39907519021754 L 828.1453845140193 67.4871330813227 L 828.0058429250494 67.57456455003492 L 827.86437425527 67.6613608532802 L 827.7209926514303 67.74751331150055 L 827.5757124515711 67.83301330952195 L 827.4285481835913 67.91785229741582 L 827.2795145637951 68.00202179135408 L 827.1286264954202 68.08551337445749 L 826.9758990671479 68.1683186976373 L 826.8213475515936 68.25042948043021 L 826.6649874037802 68.33183751182635 L 826.5068342595919 68.41253465109044 L 826.3469039342116 68.4925128285758 L 826.1852124205384 68.5717640465313 L 826.0217758875891 68.65028037990122 L 825.8566106788805 68.72805397711764 L 825.6897333107962 68.80507706088565 L 825.5211604709338 68.88134192896105 L 825.3509090164366 68.95684095492061 L 825.1789959723085 69.03156658892462 L 825.0054385297104 69.10551135847197 L 824.8302540442421 69.17866786914732 L 824.6534600342061 69.25102880536058 L 824.4750741788561 69.3225869310784 L 824.2951143166288 69.39333509054786 L 824.1135984433607 69.46326620901198 L 823.9305447104878 69.53237329341717 L 823.7459714232308 69.60064943311258 L 823.5598970387646 69.66808780054113 L 823.3723401643726 69.7346816519223 L 823.183319555586 69.80042432792644 L 822.9928541143081 69.86530925434072 L 822.8009628869243 69.92932994272657 L 822.6076650623975 69.9924799910685 L 822.4129799703489 70.05475308441433 L 822.2169270791258 70.1161429955066 L 822.0195259938536 70.17664358540536 L 821.8207964544765 70.23624880410202 L 821.6207583337828 70.29495269112441 L 821.4194316354178 70.35274937613272 L 821.2168364918838 70.40963307950663 L 821.012993162526 70.46559811292322 L 820.8079220315077 70.52063887992576 L 820.601643605771 70.57474987648341 L 820.3941785129866 70.62792569154163 L 820.1855474994909 70.68016100756323 L 819.9757714282115 70.73145060106012 L 819.7648712765805 70.78178934311569 L 819.5528681344374 70.8311721998977 L 819.3397832019198 70.8795942331616 L 819.1256377873434 70.92705060074444 L 818.9104533050711 70.973536557049 L 818.6942512733718 71.01904745351838 L 818.4770533122687 71.06357873910088 L 818.2588811413767 71.10712596070502 L 818.0397565777312 71.14968476364494 L 817.8197015336058 71.19125089207583 L 817.5987380143217 71.23182018941947 L 817.3768881160468 71.27138859877994 L 817.1541740235857 71.30995216334925 L 816.9306180081622 71.34750702680313 L 816.7062424251918 71.38404943368649 L 816.4810697120455 71.4195757297891 L 816.2551223858071 71.45408236251096 L 816.0284230410209 71.48756588121756 L 815.8009943474325 71.52002293758491 L 815.5728590477216 71.55145028593446 L 815.3440399552284 71.58184478355753 L 815.114559951671 71.61120339102969 L 814.884441984859 71.63952317251467 L 814.6537090663969 71.66680129605793 L 814.4223842693846 71.69303503386982 L 814.1904907261087 71.71822176259843 L 813.9580516257306 71.7423589635919 L 813.7250902119665 71.7654442231502 L 813.4916297807636 71.78747523276665 L 813.2576936779706 71.80844978935863 L 813.0233052970026 71.82836579548797 L 812.7884880765026 71.84722125957065 L 812.553265497997 71.86501429607597 L 812.3176610835474 71.8817431257151 L 812.081698393399 71.89740607561903 L 811.8454010236244 71.91200157950583 L 811.6087926037634 71.92552817783725 L 811.3718967944608 71.93798451796474 L 811.1347372851003 71.94936935426468 L 810.8973377914351 71.95968154826289 L 810.6597220532167 71.96892006874862 L 810.421913831821 71.97708399187748 L 810.183936907872 71.98417250126396 L 809.9458150788636 71.99018488806304 L 809.7075721567804 71.99512055104105 L 809.4692319657161 71.99897899663581 L 809.2308183394911 72.00175983900598 L 808.9923551192693 72.00346280006961 L 808.7538661511742 72.00408770953204 L 808.5153752839036 72.00363450490285 L 808.2769063663458 72.0021032315021 L 808.0384832451936 71.99949404245586 L 807.8001297625606 71.9958071986809 L 807.5618697535962 71.99104306885846 L 807.323727044103 71.98520212939759 L 807.0857254481533 71.97828496438737 L 806.8478887657085 71.97029226553852 L 806.6102407802385 71.96122483211428 L 806.372805256344 71.95108357085043 L 806.1356059373793 71.93986949586466 L 805.8986665430789 71.92758372855508 L 805.6620107671846 71.91422749748824 L 805.4256622750768 71.89980213827607 L 805.1896447014077 71.8843090934425 L 804.9539816477381 71.86774991227908 L 804.718696680177 71.85012625069015 L 804.483813327025 71.83143987102717 L 804.2493550764217 71.81169264191253 L 804.0153453739969 71.79088653805269 L 803.7818076205255 71.7690236400407 L 803.5487651695886 71.74610613414815 L 803.3162413252369 71.72213631210651 L 803.084259339661 71.69711657087802 L 802.8528424108664 71.67104941241597 L 802.6220136803529 71.64393744341446 L 802.3917962308013 71.6157833750478 L 802.1622130837648 71.58659002269937 L 801.9332871973664 71.55636030568009 L 801.7050414640045 71.52509724693644 L 801.4774987080618 71.49280397274828 L 801.2506816836245 71.45948371241609 L 801.0246130722061 71.42513979793813 L 800.7993154804791 71.38977566367726 L 800.574811438015 71.35339484601741 L 800.3511233950311 71.31600098301004 L 800.1282737201452 71.27759781401028 L 799.9062846981391 71.23818917930303 L 799.68517852773 71.19777901971894 L 799.4649773193506 71.15637137624027 L 799.2457030929385 71.11397038959687 L 799.0273777757333 71.07058029985207 L 798.8100232000849 71.02620544597868 L 798.5936611012698 70.98085026542512 L 798.3783131153175 70.93451929367163 L 798.1640007768473 70.8872171637768 L 797.9507455169141 70.8389486059142 L 797.7385686608667 70.78971844689937 L 797.5274914262134 70.7395316097072 L 797.317534920502 70.6883931129796 L 797.1087201392081 70.6363080705236 L 796.9010679636358 70.58328169080006 L 796.6945991588296 70.52931927640276 L 796.489334371498 70.47442622352818 L 796.2852941279485 70.41860802143584 L 796.0824988320355 70.36187025189946 L 795.8809687631198 70.3042185886487 L 795.6807240740401 70.24565879680183 L 795.4817847890985 70.18619673228926 L 795.2841708020577 70.12583834126788 L 795.0879018741518 70.06458965952649 L 794.89299763211 70.00245681188221 L 794.6994775661941 69.93944601156807 L 794.5073610282493 69.87556355961155 L 794.3166672297696 69.81081584420461 L 794.1274152399756 69.74520934006487 L 793.9396239839086 69.67875060778805 L 793.753312240538 69.61144629319199 L 793.5684986408826 69.54330312665208 L 793.3852016661485 69.47432792242817 L 793.2034396458803 69.40452757798322 L 793.0232307561288 69.3339090732935 L 792.8445930176325 69.26247947015062 L 792.6675442940166 69.19024591145539 L 792.4921022900057 69.11721562050347 L 792.3182845496543 69.0433959002631 L 792.1461084545914 68.96879413264479 L 791.975591222283 68.89341777776313 L 791.8067499043104 68.81727437319081 L 791.6396013846645 68.74037153320482 L 791.4741623780582 68.66271694802508 L 791.310449428254 68.58431838304537 L 791.1484789064107 68.5051836780569 L 790.9882670094454 68.4253207464642 L 790.8298297584142 68.34473757449386 L 790.6731829969104 68.26344222039596 L 790.5183423894796 68.18144281363814 L 790.3653234200533 68.09874755409275 L 790.214141390401 68.01536471121685 L 790.0648114185997 67.9313026232252 L 789.9173484375222 67.84656969625658 L 789.7717671933436 67.76117440353308 L 789.6280822440672 67.67512528451279 L 789.486307958068 67.5884309440359 L 789.3464585126566 67.50110005146425 L 789.2085478926608 67.41314133981427 L 789.0725898890278 67.32456360488388 L 788.9385980974447 67.23537570437271 L 788.806585916979 67.14558655699653 L 788.6765665487386 67.05520514159522 L 788.5485529945521 66.96424049623502 L 788.4225580556682 66.87270171730466 L 788.2985943314759 66.78059795860575 L 788.1766742182442 66.68793843043741 L 788.0568099078828 66.59473239867523 L 787.9390133867229 66.50098918384472 L 787.8232964343184 66.40671816018926 L 787.7096706222682 66.31192875473263 L 787.5981473130588 66.2166304463364 L 787.4887376589281 66.120832764752 L 787.3814526007504 66.02454528966774 L 787.2763028669422 65.92777764975091 L 787.1732989723891 65.83053952168484 L 787.0724512173948 65.73284062920132 L 786.9737696866507 65.63469074210818 L 786.8772642482278 65.53609967531233 L 786.7829445525894 65.4370772878383 L 786.6908200316263 65.33763348184232 L 786.6008998977142 65.23777820162212 L 786.5131931427912 65.13752143262249 L 786.4277085374599 65.03687320043682 L 786.3444546301097 64.93584356980442 L 786.2634397460616 64.83444264360419 L 786.1846719867368 64.73268056184422 L 786.1081592288456 64.63056750064791 L 786.0339091235998 64.52811367123628 L 785.9619290959482 64.42532931890689 L 785.8922263438335 64.32222472200931 L 785.824807837473 64.21881019091732 L 785.759680318661 64.11509606699785 L 785.6968503000951 64.01109272157687 L 785.6363240647249 63.90681055490224 L 785.5781076651234 63.80225999510374 L 785.5222069228822 63.697451497150205 L 785.4686274280288 63.59239554180411 L 785.4173745384679 63.48710263457343 L 785.3684533794461 63.381583304661156 L 785.3218688430383 63.27584810391234 L 785.2776255876594 63.16990760575894 L 785.2357280375979 63.06377240416249 L 785.1961803825742 62.95745311255472 L 785.1589865773205 62.85096036277616 L 785.1241503411867 62.744304804013076 L 785.091675157767 62.63749710173245 L 785.061564274553 62.530547936615505 L 785.0338207026077 62.423468003489624 L 785.0084472162654 62.316268010258895 L 784.9854463528534 62.208958676833305 L 784.9648204124389 62.10155073405677 L 784.9465714575988 61.99405492263407 L 784.9307013132134 61.88648199205676 L 784.9172115662839 61.77884269952825 L 784.9061035657736 61.6711478088881 L 784.8973784224736 61.56340808953563 L 784.8910370088906 61.45563431535299 L 784.887079959161 61.34783726362778 L 784.8855076689863 61.24002771397536 L 784.8863202955943 61.13221644726084 L 784.8895177577228 61.02441424452105 L 784.8950997356285 60.916631885886424 L 784.9030656711182 60.808880149503025 L 784.9134147676049 60.70116981045468 L 784.9261459901877 60.59351163968555 L 784.9412580657548 60.48591640292299 L 784.9587494831114 60.378394859601016 L 784.9786184931302 60.27095776178435 L 785.0008631089269 60.163615853093255 L 785.0254811060584 60.05637986762915 L 785.0524700227453 59.949260528901206 L 785.0818271601187 59.84226854875404 L 785.1135495824892 59.7354146262965 L 785.1476341176411 59.62870944683179 L 785.1840773571491 59.52216368078894 L 785.2228756567199 59.41578798265577 L 785.2640251365556 59.30959298991343 L 785.3075216817426 59.203589321972714 L 785.3533609426627 59.09778757911208 L 785.4015383354279 58.992198341417634 L 785.4520490423391 58.88683216772516 L 785.5048880123677 58.78169959456423 L 785.5600499616609 58.67681113510454 L 785.6175293740695 58.57217727810464 L 785.6773205017003 58.46780848686303 L 785.7394173654901 58.36371519817185 L 785.8038137558046 58.25990782127324 L 785.8705032330585 58.15639673681838 L 785.9394791283593 58.053192295829454 L 786.0107345441751 57.950304818664556 L 786.0842623550237 57.84774459398567 L 786.1600552081853 57.745521877729786 L 786.2381055244377 57.64364689208335 L 786.3184054988145 57.54212982446004 L 786.4009471013849 57.44098082648201 L 786.4857220780576 57.340210012964775 L 786.5727219514056 57.2398274609057 L 786.661938021514 57.13984320847635 L 786.7533613668501 57.040267254018644 L 786.8469828451556 56.94110955504505 L 786.9427930943606 56.84238002724283 L 787.0407825335202 56.74408854348249 L 787.1409413637721 56.646244932830506 L 787.2432595693166 56.54885897956639 L 787.3477269184184 56.45194042220433 L 787.4543329644299 56.35549895251929 L 787.5630670468352 56.25954421457787 L 787.6739182923164 56.16408580377391 L 787.7868756158418 56.06913326586893 L 787.901927721773 55.974696096037604 L 788.0190631049951 55.88078373791821 L 788.1382700520675 55.7874055826683 L 788.2595366423949 55.694570968025594 L 788.3828507494193 55.60228917737418 L 788.5082000418328 55.51056943881623 L 788.6355719848104 55.41942092424918 L 788.7649538412643 55.328852748448504 L 788.8963326731164 55.23887396815633 L 789.029695342593 55.14949358117568 L 789.1650285135383 55.0607205254708 L 789.3023186527482 54.97256367827326 L 789.441552031323 54.88503185519433 L 789.5827147260409 54.79813380934336 L 789.72579262075 54.71187823045254 L 789.8707714077801 54.62627374400786 L 790.0176365893734 54.541328910386646 L 790.1663734791341 54.45705222400146 L 790.316967203497 54.373452112450714 L 790.4694027032155 54.290536935675895 L 790.6236647348662 54.20831498512558 L 790.7797378723749 54.12679448292632 L 790.9376065085577 54.0459835810604 L 791.0972548566826 53.965890360550645 L 791.2586669520477 53.88652283065238 L 791.4218266535783 53.80788892805245 L 791.5867176454398 53.72999651607559 L 791.7533234386707 53.652853383898076 L 791.9216273728305 53.57646724576885 L 792.0916126176658 53.50084574023808 L 792.263262174794 53.42599642939328 L 792.4365588794025 53.35192679810317 L 792.611485401965 53.278644253269164 L 792.7880242499751 53.20615612308466 L 792.9661577696952 53.13446965630228 L 793.1458681479218 53.06359202150896 L 793.3271374137666 52.99353030640911 L 793.5099474404543 52.924291517115876 L 793.6942799471345 52.85588257745046 L 793.8801165007103 52.78831032824984 L 794.0674385176809 52.72158152668263 L 794.2562272660008 52.65570284557336 L 794.4464638669526 52.590680872735255 L 794.6381292970348 52.52652211031142 L 794.8312043898638 52.463232974124615 L 795.0256698380915 52.40081979303573 L 795.2215061953351 52.33928880831086 L 795.4186938781219 52.278646172997206 L 795.6172131678481 52.21889795130775 L 795.8170442127501 52.160050118014894 L 796.0181670298899 52.1021085578529 L 796.2205615071535 52.045079064929524 L 796.4242074052619 51.98896734214652 L 796.6290843597947 51.933779000629414 L 796.8351718832273 51.87951955916637 L 797.0424493669792 51.826194443656306 L 797.2508960834747 51.77380898656634 L 797.4604911882159 51.72236842639853 L 797.6712137218668 51.67187790716602 L 797.8830426123499 51.622342477878675 L 798.0959566769525 51.57376709203812 L 798.3099346244456 51.526156607142475 L 798.5249550572129 51.47951578420055 L 798.74099647339 51.43384928725578 L 798.9580372690156 51.38916168291979 L 799.1760557401909 51.34545743991578 L 799.3950300852505 51.302740928631636 L 799.6149384069422 51.261016420682886 L 799.8357587146174 51.220288088485546 L 800.0574689264291 51.18056000483891 L 800.280046871541 51.14183614251822 L 800.503470292344 51.10412037387746 L 800.7277168466821 51.06741647046204 L 800.9527641100871 51.03172810263173 L 801.1785895780198 50.99705883919358 L 801.4051706681219 50.96341214704502 L 801.632484722473 50.930791390827245 L 801.8605090098571 50.899199832588685 L 802.0892207280356 50.86864063145883 L 802.3185970060272 50.83911684333235 L 802.5486149063953 50.81063142056343 L 802.7792514275415 50.78318721167063 L 803.0104835060058 50.75678696105195 L 803.2422880187731 50.731433308710464 L 803.4746417855855 50.70712878999027 L 803.7075215712597 50.683875835323 L 803.9409040880113 50.66167676998473 L 804.1747659977831 50.6405338138635 L 804.4090839145789 50.6204490812373 L 804.6438344068024 50.60142458056266 L 804.8789939996 50.583462214273794 L 805.1145391772084 50.566563778592354 L 805.350446385306 50.55073096334783 L 805.5866920333688 50.53596535180856 L 805.8232524970285 50.52226842052339 L 806.0601041204363 50.50964153917403 L 806.297223218627 50.49808597043808 L 806.5345860798884 50.48760286986282 L 806.7721689681322 50.47819328574954 L 807.0099481252674 50.46985815904882 L 807.2478997735768 50.462598323266384 L 807.4860001180936 50.456414504379765 L 807.7242253489817 50.45130732076569 L 807.9625516439168 50.44727728313828 L 808.2009551704678 50.444324794497916 L 808.4394120884806 50.44245015009101 L 808.6778985524625 50.44165353738045 L 808.9163907139655 50.44193503602685 L 809.1548647239723 50.443294617880554 L 809.3932967352807 50.445732146984525 L 809.6316629048882 50.44924737958788 L 809.8699393963765 50.45383996417029 L 810.108102382295 50.459509441477124 L 810.3461280465435 50.46625524456538 L 810.583992586754 50.474076698860365 L 810.8216722166707 50.48297302222316 L 811.0591431685287 50.49294332502887 L 811.2963816954307 50.50398661025549 L 811.5333640737216 50.51610177358371 L 811.7700666053612 50.52928760350731 L 812.0064656202935 50.54354278145426 L 812.2425374788141 50.55886588191867 L 812.4782585739338 50.575255372603245 L 812.7136053337395 50.592709614572584 L 812.9485542237513 50.61122686241703 L 813.1830817492761 50.630805264427224 L 813.4171644577568 50.651442862779284 L 813.6507789411176 50.67313759373059 L 813.8839018381046 50.695887287826096 L 814.1165098366228 50.71968967011537 L 814.3485796760658 50.74454236038002 L 814.5800881496433 50.77044287337172 L 814.8110121067008 50.797388619060754 L 815.041328455035 50.825376902895016 L 815.271014163203 50.85440492606945 L 815.5000462628253 50.88446978580591 L 815.728401850883 50.9155684756435 L 815.9560580920074 50.947697885739125 L 816.1829922207642 50.980854803178566 L 816.4091815439295 51.01503591229771 L 816.6346034427598 51.05023779501413 L 816.8592353752528 51.08645693116888 L 817.0830548784024 51.12368969887854 L 817.306039570445 51.16193237489736 L 817.528167153097 51.201181134989596 L 817.7494154137855 51.241432054311964 L 817.9697622278686 51.28268110780607 L 818.1891855608485 51.32492417060092 L 818.4076634705749 51.368157018425464 L 818.6251741094388 51.41237532803093 L 818.8416957265576 51.45757467762322 L 819.05720666995 51.503750547305025 L 819.2716853887013 51.55089831952786 L 819.4851104351183 51.5990132795538 L 819.6974604668742 51.64809061592693 L 819.9087142491429 51.69812542095451 L 820.1188506567221 51.749112691197745 L 820.3278486761461 51.801047327972086 L 820.5356874077873 51.85392413785714 L 820.7423460679456 51.90773783321599 L 820.9478039909274 51.962483032723924 L 821.1520406311113 52.01815426190663 L 821.3550355650036 52.07474595368758 L 821.5567684932802 52.132252448944755 L 821.7572192428163 52.190667997076545 L 821.9563677687039 52.24998675657682 L 822.1541941562565 52.310202795619055 L 822.3506786230001 52.371310092649544 L 822.5458015206519 52.43330253698949 L 822.7395433370847 52.49617392944612 L 822.931884698278 52.559917982932596 L 823.1228063702565 52.62452832309667 L 823.3122892610116 52.68999848895818 L 823.5003144224125 52.7563219335551 L 823.6868630520996 52.823492024598224 L 823.8719164953653 52.89150204513444 L 824.0554562470196 52.960345194218355 L 824.2374639532403 53.03001458759244 L 824.4179214134084 53.10050325837541 L 824.5968105819283 53.171804157758935 L 824.774113570032 53.243910155712484 L 824.9498126475688 53.31681404169635 L 825.1238902447772 53.39050852538269 L 825.2963289540425 53.46498623738456 L 825.4671115316374 53.5402397299928 L 825.6362208994467 53.61626147792087 L 825.8036401466743 53.69304387905734 L 825.9693525315352 53.770579255226075 L 826.1333414829288 53.848859852954064 L 826.2955906020968 53.92787784424677 L 826.4560836642625 54.00762532737092 L 826.6148046202533 54.08809432764465 L 826.7717375981058 54.16927679823499 L 826.9268669046531 54.251164620962534 L 827.080177027094 54.33374960711325 L 827.2316526345437 54.41702349825734 L 827.3812785795678 54.500977967075094 L 827.5290398996966 54.58560461818958 L 827.6749218189211 54.670894989006214 L 827.818909749171 54.75684055055899 L 827.9609892917732 54.84343270836337 L 828.1011462388919 54.93066280327574 L 828.2393665749491 55.0185221123593 L 828.3756364780265 55.107001849756344 L 828.5099423212473 55.196093167566886 L 828.6422706741391 55.28578715673337 L 828.7726083039768 55.37607484793163 L 828.9009421771061 55.46694721246779 L 829.0272594602468 55.55839516318112 L 829.1515475217755 55.65040955535275 L 829.2737939329899 55.742981187620146 L 829.3939864693506 55.83610080289723 L 829.5121131117043 55.92975908930006 L 829.6281620474849 56.02394668107806 L 829.7421216718958 56.11865415955053 L 829.8539805890695 56.213872054048544 L 829.9637276132073 56.30959084286201 L 830.0713517696985 56.405800954191804 L 830.1768422962169 56.50249276710697 L 830.2801886437979 56.5996566125068 L 830.3813804778929 56.69728277408771 L 830.4804076794028 56.79536148931491 L 830.5772603456898 56.89388295039859 L 830.6719287915681 56.99283730527477 L 830.764403550272 57.09221465859041 L 830.8546753744029 57.19200507269298 L 830.9427352368532 57.29219856862425 L 831.0285743317103 57.39278512711811 L 831.1121840751363 57.49375468960253 L 831.1935561062262 57.59509715920541 L 831.2726822878451 57.69680240176424 L 831.3495547074406 57.79886024683951 L 831.4241656778347 57.90126048873177 L 831.4965077379927 58.003992887502164 L 831.566573653769 58.10704716999642 L 831.63435641863 58.21041303087217 L 831.699849254356 58.31408013362946 L 831.7630456117179 58.41803811164441 L 831.8239391711326 58.52227656920584 L 831.882523843295 58.62678508255487 L 831.9387937697866 58.731553200927245 L 831.9927433236618 58.83657044759845 L 832.0443671100101 58.94182632093131 L 832.0936599664957 59.04731029542622 L 832.1406169638743 59.153011822773635 L 832.1852334064852 59.25892033290889 L 832.2275048327213 59.36502523506925 L 832.267427015475 59.471315918852895 L 832.3049959625617 59.57778175528004 L 832.3402079171177 59.684412097855756 L 832.3730593579771 59.79119628363465 L 832.403547000023 59.89812363428712 L 832.4316677945167 60.005183457167206 L 832.457418929402 60.11236504638185 L 832.4807978295872 60.21965768386144 L 832.5018021572015 60.327050640431644 L 832.5204298118298 60.43453317688629 L 832.536678930722 60.5420945450613 L 832.55054788898 60.6497239889095 L 832.5620352997192 60.757410745576195 L 832.5711400142084 60.86514404647545 L 832.5778611219836 60.972913118366954 L 832.5821979509395 61.08070718443333 L 832.5841500673971 61.188515465357796 M 832.5842710574531 95.52678387991818 L 832.5830785975494 95.6345944248348 L 832.5795013370833 95.74239418878678 L 832.5735396337781 95.85017239188754 L 832.5651940837987 95.95791825640659 L 832.5544655216935 96.06562100784727 L 832.5413550203097 96.1732698760242 L 832.5258638906864 96.28085409614023 L 832.5079936819238 96.38836290986303 L 832.4877461810278 96.49578556640084 L 832.4651234127316 96.60311132357748 L 832.4401276392932 96.7103294489067 L 832.4127613602692 96.8174292206653 L 832.3830273122646 96.92439992896537 L 832.3509284686595 97.0312308768252 L 832.3164680393114 97.13791138123905 L 832.2796494702346 97.24443077424536 L 832.2404764432553 97.35077840399362 L 832.1989528756435 97.45694363580944 L 832.1550829197215 97.56291585325815 L 832.1088709624481 97.66868445920629 L 832.0603216249808 97.77423887688141 L 832.0094397622128 97.8795685509297 L 831.9562304622879 97.98466294847155 L 831.9006990460916 98.08951156015478 L 831.8428510667196 98.19410390120557 L 831.7826923089215 98.29842951247699 L 831.7202287885228 98.40247796149485 L 831.6554667518236 98.50623884350097 L 831.5884126749736 98.60970178249359 L 831.5190732633247 98.71285643226504 L 831.44745545076 98.81569247743631 L 831.3735663990013 98.91819963448859 L 831.2974134968923 99.02036765279156 L 831.2190043596595 99.12218631562857 L 831.1383468281514 99.22364544121817 L 831.055448968054 99.32473488373233 L 830.9703190690841 99.42544453431107 L 830.8829656441607 99.52576432207324 L 830.7933974285535 99.62568421512367 L 830.7016233790094 99.72519422155631 L 830.6076526728571 99.82428439045346 L 830.5114947070884 99.92294481288079 L 830.4131590974204 100.02116562287829 L 830.3126556773316 100.11893699844678 L 830.2099944970804 100.2162491625302 L 830.1051858226994 100.31309238399325 L 829.9982401349685 100.40945697859446 L 829.8891681283675 100.50533330995468 L 829.7779807100062 100.60071179052068 L 829.6646889985336 100.69558288252388 L 829.5493043230267 100.78993709893413 L 829.4318382218567 100.88376500440843 L 829.3123024415357 100.97705721623441 L 829.1907089355425 101.06980440526866 L 829.0670698631261 101.16199729686952 L 828.9413975880907 101.25362667182469 L 828.8137046775593 101.34468336727302 L 828.6840039007162 101.43515827762084 L 828.5523082275313 101.52504235545253 L 828.418630827462 101.61432661243519 L 828.2829850681371 101.70300212021755 L 828.1453845140193 101.7910600113227 L 828.0058429250494 101.87849148003492 L 827.86437425527 101.9652877832802 L 827.7209926514303 102.05144024150056 L 827.5757124515711 102.13694023952193 L 827.4285481835913 102.22177922741581 L 827.2795145637951 102.30594872135407 L 827.1286264954202 102.38944030445748 L 826.9758990671479 102.47224562763729 L 826.8213475515936 102.5543564104302 L 826.6649874037802 102.63576444182635 L 826.5068342595919 102.71646158109044 L 826.3469039342116 102.79643975857579 L 826.1852124205384 102.8756909765313 L 826.0217758875891 102.95420730990122 L 825.8566106788805 103.03198090711763 L 825.6897333107962 103.10900399088564 L 825.5211604709338 103.18526885896105 L 825.3509090164366 103.2607678849206 L 825.1789959723085 103.33549351892461 L 825.0054385297104 103.40943828847196 L 824.8302540442421 103.48259479914732 L 824.6534600342061 103.55495573536056 L 824.4750741788561 103.6265138610784 L 824.2951143166288 103.69726202054787 L 824.1135984433607 103.76719313901197 L 823.9305447104878 103.83630022341715 L 823.7459714232308 103.90457636311257 L 823.5598970387646 103.97201473054113 L 823.3723401643726 104.03860858192229 L 823.183319555586 104.10435125792642 L 822.9928541143081 104.1692361843407 L 822.8009628869243 104.23325687272656 L 822.6076650623975 104.29640692106851 L 822.4129799703489 104.35868001441433 L 822.2169270791258 104.4200699255066 L 822.0195259938536 104.48057051540535 L 821.8207964544765 104.54017573410202 L 821.6207583337828 104.5988796211244 L 821.4194316354178 104.65667630613272 L 821.2168364918838 104.71356000950664 L 821.012993162526 104.7695250429232 L 820.8079220315077 104.82456580992574 L 820.601643605771 104.87867680648341 L 820.3941785129866 104.93185262154162 L 820.1855474994909 104.98408793756322 L 819.9757714282115 105.0353775310601 L 819.7648712765805 105.08571627311568 L 819.5528681344374 105.13509912989768 L 819.3397832019198 105.1835211631616 L 819.1256377873434 105.23097753074444 L 818.9104533050711 105.27746348704899 L 818.6942512733718 105.32297438351839 L 818.4770533122687 105.36750566910086 L 818.2588811413767 105.41105289070501 L 818.0397565777312 105.45361169364494 L 817.8197015336058 105.49517782207583 L 817.5987380143217 105.53574711941947 L 817.3768881160468 105.57531552877992 L 817.1541740235857 105.61387909334925 L 816.9306180081622 105.65143395680312 L 816.7062424251918 105.68797636368647 L 816.4810697120455 105.72350265978909 L 816.2551223858071 105.75800929251095 L 816.0284230410209 105.79149281121755 L 815.8009943474325 105.82394986758491 L 815.5728590477216 105.85537721593445 L 815.3440399552284 105.88577171355752 L 815.114559951671 105.9151303210297 L 814.884441984859 105.94345010251467 L 814.6537090663969 105.97072822605791 L 814.4223842693846 105.99696196386981 L 814.1904907261087 106.02214869259844 L 813.9580516257306 106.04628589359189 L 813.7250902119665 106.0693711531502 L 813.4916297807636 106.09140216276666 L 813.2576936779706 106.11237671935864 L 813.0233052970026 106.13229272548797 L 812.7884880765026 106.15114818957065 L 812.553265497997 106.16894122607596 L 812.3176610835474 106.1856700557151 L 812.081698393399 106.20133300561903 L 811.8454010236244 106.21592850950582 L 811.6087926037634 106.22945510783724 L 811.3718967944608 106.24191144796474 L 811.1347372851003 106.25329628426466 L 810.8973377914351 106.2636084782629 L 810.6597220532167 106.2728469987486 L 810.421913831821 106.28101092187747 L 810.183936907872 106.28809943126396 L 809.9458150788636 106.29411181806304 L 809.7075721567804 106.29904748104106 L 809.4692319657161 106.30290592663582 L 809.2308183394911 106.30568676900597 L 808.9923551192693 106.30738973006962 L 808.7538661511742 106.30801463953205 L 808.5153752839036 106.30756143490284 L 808.2769063663458 106.3060301615021 L 808.0384832451936 106.30342097245587 L 807.8001297625606 106.29973412868088 L 807.5618697535962 106.29496999885845 L 807.323727044103 106.28912905939758 L 807.0857254481533 106.28221189438736 L 806.8478887657085 106.27421919553852 L 806.6102407802385 106.26515176211427 L 806.372805256344 106.25501050085043 L 806.1356059373793 106.24379642586464 L 805.8986665430789 106.23151065855508 L 805.6620107671846 106.21815442748823 L 805.4256622750768 106.20372906827606 L 805.1896447014077 106.1882360234425 L 804.9539816477381 106.17167684227908 L 804.718696680177 106.15405318069014 L 804.483813327025 106.13536680102716 L 804.2493550764217 106.11561957191253 L 804.0153453739969 106.09481346805269 L 803.7818076205255 106.0729505700407 L 803.5487651695886 106.05003306414814 L 803.3162413252369 106.0260632421065 L 803.084259339661 106.00104350087803 L 802.8528424108664 105.97497634241597 L 802.6220136803529 105.94786437341445 L 802.3917962308013 105.9197103050478 L 802.1622130837648 105.89051695269937 L 801.9332871973664 105.86028723568009 L 801.7050414640045 105.82902417693644 L 801.4774987080618 105.79673090274827 L 801.2506816836245 105.76341064241608 L 801.0246130722061 105.72906672793813 L 800.7993154804791 105.69370259367726 L 800.574811438015 105.6573217760174 L 800.3511233950311 105.61992791301003 L 800.1282737201452 105.58152474401028 L 799.9062846981391 105.54211610930304 L 799.68517852773 105.50170594971894 L 799.4649773193506 105.46029830624026 L 799.2457030929385 105.41789731959686 L 799.0273777757333 105.37450722985206 L 798.8100232000849 105.33013237597868 L 798.5936611012698 105.28477719542511 L 798.3783131153175 105.23844622367163 L 798.1640007768473 105.1911440937768 L 797.9507455169141 105.14287553591419 L 797.7385686608667 105.09364537689936 L 797.5274914262134 105.0434585397072 L 797.317534920502 104.99232004297959 L 797.1087201392081 104.9402350005236 L 796.9010679636358 104.88720862080007 L 796.6945991588296 104.83324620640276 L 796.489334371498 104.77835315352817 L 796.2852941279485 104.72253495143585 L 796.0824988320355 104.66579718189945 L 795.8809687631198 104.60814551864868 L 795.6807240740401 104.54958572680184 L 795.4817847890985 104.49012366228926 L 795.2841708020577 104.42976527126788 L 795.0879018741518 104.36851658952648 L 794.89299763211 104.30638374188221 L 794.6994775661941 104.24337294156805 L 794.5073610282493 104.17949048961154 L 794.3166672297696 104.11474277420461 L 794.1274152399756 104.04913627006486 L 793.9396239839086 103.98267753778805 L 793.753312240538 103.91537322319199 L 793.5684986408826 103.84723005665208 L 793.3852016661485 103.77825485242818 L 793.2034396458803 103.70845450798322 L 793.0232307561288 103.63783600329349 L 792.8445930176325 103.56640640015061 L 792.6675442940166 103.49417284145538 L 792.4921022900057 103.42114255050346 L 792.3182845496543 103.3473228302631 L 792.1461084545914 103.27272106264479 L 791.975591222283 103.19734470776314 L 791.8067499043104 103.1212013031908 L 791.6396013846645 103.04429846320481 L 791.4741623780582 102.96664387802507 L 791.310449428254 102.88824531304537 L 791.1484789064107 102.8091106080569 L 790.9882670094454 102.72924767646418 L 790.8298297584142 102.64866450449387 L 790.6731829969104 102.56736915039596 L 790.5183423894796 102.48536974363815 L 790.3653234200533 102.40267448409276 L 790.214141390401 102.31929164121684 L 790.0648114185997 102.2352295532252 L 789.9173484375222 102.15049662625658 L 789.7717671933436 102.06510133353308 L 789.6280822440672 101.97905221451278 L 789.486307958068 101.89235787403591 L 789.3464585126566 101.80502698146424 L 789.2085478926608 101.71706826981428 L 789.0725898890278 101.62849053488388 L 788.9385980974447 101.53930263437272 L 788.806585916979 101.44951348699652 L 788.6765665487386 101.35913207159521 L 788.5485529945521 101.26816742623502 L 788.4225580556682 101.17662864730465 L 788.2985943314759 101.08452488860574 L 788.1766742182442 100.9918653604374 L 788.0568099078828 100.89865932867522 L 787.9390133867229 100.80491611384473 L 787.8232964343184 100.71064509018925 L 787.7096706222682 100.61585568473262 L 787.5981473130588 100.5205573763364 L 787.4887376589281 100.424759694752 L 787.3814526007504 100.32847221966773 L 787.2763028669422 100.2317045797509 L 787.1732989723891 100.13446645168483 L 787.0724512173948 100.03676755920131 L 786.9737696866507 99.93861767210817 L 786.8772642482278 99.84002660531232 L 786.7829445525894 99.7410042178383 L 786.6908200316263 99.64156041184232 L 786.6008998977142 99.54170513162211 L 786.5131931427912 99.4414483626225 L 786.4277085374599 99.34080013043682 L 786.3444546301097 99.23977049980442 L 786.2634397460616 99.13836957360418 L 786.1846719867368 99.03660749184422 L 786.1081592288456 98.9344944306479 L 786.0339091235998 98.83204060123627 L 785.9619290959482 98.72925624890688 L 785.8922263438335 98.6261516520093 L 785.824807837473 98.52273712091731 L 785.759680318661 98.41902299699785 L 785.6968503000951 98.31501965157686 L 785.6363240647249 98.21073748490224 L 785.5781076651234 98.10618692510373 L 785.5222069228822 98.0013784271502 L 785.4686274280288 97.89632247180411 L 785.4173745384679 97.79102956457344 L 785.3684533794461 97.68551023466115 L 785.3218688430383 97.57977503391233 L 785.2776255876594 97.47383453575894 L 785.2357280375979 97.3676993341625 L 785.1961803825742 97.2613800425547 L 785.1589865773205 97.15488729277617 L 785.1241503411867 97.04823173401307 L 785.091675157767 96.94142403173245 L 785.061564274553 96.8344748666155 L 785.0338207026077 96.72739493348962 L 785.0084472162654 96.6201949402589 L 784.9854463528534 96.51288560683331 L 784.9648204124389 96.40547766405678 L 784.9465714575988 96.29798185263407 L 784.9307013132134 96.19040892205675 L 784.9172115662839 96.08276962952824 L 784.9061035657736 95.9750747388881 L 784.8973784224736 95.86733501953563 L 784.8910370088906 95.75956124535298 L 784.887079959161 95.65176419362778 L 784.8855076689863 95.54395464397535" stroke-miterlimit="10" stroke-width="2.7769845610000004" stroke-dasharray=""/></g><g><g/><text fill="black" stroke="none" font-family="sans-serif" font-size="11pt" font-style="normal" font-weight="normal" text-decoration="normal" x="777.3569292931641" y="123.83569119881818" text-anchor="start" dominant-baseline="alphabetic" xml:space="preserve">Database</text></g></g><g><path fill="white" stroke="black" paint-order="fill stroke markers" d=" M 186.97503099036456 182.64242307881818 L 203.31023429036455 182.64242307881818 L 203.31023429036455 411.3352692788182 L 186.97503099036456 411.3352692788182 L 186.97503099036456 182.64242307881818" stroke-miterlimit="10" stroke-width="1.3612669416666667" stroke-dasharray=""/><path fill="white" stroke="black" paint-order="fill stroke markers" d=" M 490.5213348953776 228.3809923188182 L 506.8565381953776 228.3809923188182 L 506.8565381953776 365.5967000388182 L 490.5213348953776 365.5967000388182 L 490.5213348953776 228.3809923188182" stroke-miterlimit="10" stroke-width="1.3612669416666667" stroke-dasharray=""/><path fill="white" stroke="black" paint-order="fill stroke markers" d=" M 800.5672725894531 274.1195615588182 L 816.9024758894532 274.1195615588182 L 816.9024758894532 319.8581307988182 L 800.5672725894531 319.8581307988182 L 800.5672725894531 274.1195615588182" stroke-miterlimit="10" stroke-width="1.3612669416666667" stroke-dasharray=""/><g><text fill="black" stroke="none" font-family="sans-serif" font-size="16pt" font-style="normal" font-weight="normal" text-decoration="normal" x="348.01204681396484" y="24.651306798181814" text-anchor="start" dominant-baseline="alphabetic" xml:space="preserve">Station Location</text></g><g><rect fill="white" stroke="none" x="102.85904241697916" y="161.4066587888182" width="4.90056099" height="21.23576429"/><text fill="black" stroke="none" font-family="sans-serif" font-size="11pt" font-style="normal" font-weight="normal" text-decoration="normal" x="105.30932291197917" y="176.10834175881817" text-anchor="start" dominant-baseline="alphabetic" xml:space="preserve"/></g><g><path fill="none" stroke="black" paint-order="fill stroke markers" d=" M 23.64361483359375 182.64242307881818 L 173.52571360669788 182.64242307881818" stroke-miterlimit="10" stroke-width="1.3612669416666667" stroke-dasharray=""/><g transform="translate(186.97503099036456,182.64242307881818) translate(-186.97503099036456,-182.64242307881818)"><path fill="black" stroke="none" paint-order="stroke fill markers" d=" M 173.36236157369788 175.83608837048484 L 186.97503099036456 182.64242307881818 L 173.36236157369788 189.44875778715152 Z"/></g></g><g><rect fill="white" stroke="none" x="222.64022486203126" y="207.1452280288182" width="248.5511194616797" height="21.23576429"/><text fill="black" stroke="none" font-family="sans-serif" font-size="11pt" font-style="normal" font-weight="normal" text-decoration="normal" x="225.09050535703125" y="221.84691099881817" text-anchor="start" dominant-baseline="alphabetic" xml:space="preserve">Request nearby stations &amp; availability</text></g><g><path fill="none" stroke="black" paint-order="fill stroke markers" d=" M 203.31023429036455 228.3809923188182 L 477.07201751171095 228.3809923188182" stroke-miterlimit="10" stroke-width="1.3612669416666667" stroke-dasharray=""/><g transform="translate(490.5213348953776,228.3809923188182) translate(-490.5213348953776,-228.3809923188182)"><path fill="black" stroke="none" paint-order="stroke fill markers" d=" M 476.90866547871093 221.57465761048485 L 490.5213348953776 228.3809923188182 L 476.90866547871093 235.18732702715153 Z"/></g></g><g><rect fill="white" stroke="none" x="526.1865287670443" y="252.88379726881823" width="255.0507532507422" height="21.23576429"/><text fill="black" stroke="none" font-family="sans-serif" font-size="11pt" font-style="normal" font-weight="normal" text-decoration="normal" x="528.6368092620443" y="267.5854802388182" text-anchor="start" dominant-baseline="alphabetic" xml:space="preserve">Query for nearby stations &amp; availability</text></g><g><path fill="none" stroke="black" paint-order="fill stroke markers" d=" M 506.8565381953776 274.1195615588182 L 787.1179552057864 274.1195615588182" stroke-miterlimit="10" stroke-width="1.3612669416666667" stroke-dasharray=""/><g transform="translate(800.5672725894531,274.1195615588182) translate(-800.5672725894531,-274.1195615588182)"><path fill="black" stroke="none" paint-order="stroke fill markers" d=" M 786.9546031727864 267.31322685048485 L 800.5672725894531 274.1195615588182 L 786.9546031727864 280.92589626715153 Z"/></g></g><g><rect fill="white" stroke="none" x="580.7713218578646" y="298.6223665088182" width="145.88116706910156" height="21.23576429"/><text fill="black" stroke="none" font-family="sans-serif" font-size="11pt" font-style="normal" font-weight="normal" text-decoration="normal" x="583.2216023528646" y="313.32404947881815" text-anchor="start" dominant-baseline="alphabetic" xml:space="preserve">Send back the results</text></g><g><path fill="none" stroke="black" paint-order="fill stroke markers" d=" M 800.5672725894531 319.8581307988182 L 520.3058555790443 319.8581307988182" stroke-miterlimit="10" stroke-width="1.3612669416666667" stroke-dasharray=""/><g transform="translate(506.8565381953776,319.8581307988182) translate(-506.8565381953776,-319.8581307988182)"><path fill="black" stroke="none" paint-order="stroke fill markers" d=" M 520.4692076120442 313.05179609048486 L 506.8565381953776 319.8581307988182 L 520.4692076120442 326.66446550715153 Z"/></g></g><g><rect fill="white" stroke="none" x="273.9752010583203" y="344.3609357488182" width="145.88116706910156" height="21.23576429"/><text fill="black" stroke="none" font-family="sans-serif" font-size="11pt" font-style="normal" font-weight="normal" text-decoration="normal" x="276.4254815533203" y="359.06261871881816" text-anchor="start" dominant-baseline="alphabetic" xml:space="preserve">Send back the results</text></g><g><path fill="none" stroke="black" paint-order="fill stroke markers" d=" M 490.5213348953776 365.5967000388182 L 216.75955167403123 365.5967000388182" stroke-miterlimit="10" stroke-width="1.3612669416666667" stroke-dasharray=""/><g transform="translate(203.31023429036455,365.5967000388182) translate(-203.31023429036455,-365.5967000388182)"><path fill="black" stroke="none" paint-order="stroke fill markers" d=" M 216.92290370703122 358.79036533048486 L 203.31023429036455 365.5967000388182 L 216.92290370703122 372.40303474715154 Z"/></g></g><g><rect fill="white" stroke="none" x="42.973605405260415" y="390.0995049888182" width="124.6714350134375" height="21.23576429"/><text fill="black" stroke="none" font-family="sans-serif" font-size="11pt" font-style="normal" font-weight="normal" text-decoration="normal" x="45.423885900260416" y="404.80118795881816" text-anchor="start" dominant-baseline="alphabetic" xml:space="preserve">Display the results</text></g><g><path fill="none" stroke="black" paint-order="fill stroke markers" d=" M 186.97503099036456 411.3352692788182 L 37.09293221726042 411.3352692788182" stroke-miterlimit="10" stroke-width="1.3612669416666667" stroke-dasharray=""/><g transform="translate(23.64361483359375,411.3352692788182) translate(-23.64361483359375,-411.3352692788182)"><path fill="black" stroke="none" paint-order="stroke fill markers" d=" M 37.25628425026042 404.52893457048486 L 23.64361483359375 411.3352692788182 L 37.25628425026042 418.14160398715154 Z"/></g></g></g><g/><g/><g/><g/></g></svg>